# Blender 3.3.1
# www.blender.org
o Bishop
v -1.000000 0.000000 1.000000
v -0.700000 4.814939 0.700000
v -1.000000 0.000000 -1.000000
v -0.700000 4.814939 -0.700000
v 1.000000 0.000000 1.000000
v 0.700000 4.814939 0.700000
v 1.000000 0.000000 -1.000000
v 0.700000 4.814939 -0.700000
v -1.000000 0.422642 1.000000
v -1.000000 0.422642 -1.000000
v 1.000000 0.422642 -1.000000
v 1.000000 0.422642 1.000000
v -0.766574 1.426415 0.766574
v -0.766574 1.426415 -0.766574
v 0.766574 1.426415 -0.766574
v 0.766574 1.426415 0.766574
v -0.857754 1.638530 0.857754
v -0.857754 1.638530 -0.857754
v 0.857754 1.638530 -0.857754
v 0.857754 1.638530 0.857754
v -0.735786 1.870628 0.735786
v -0.735786 1.870628 -0.735786
v 0.735786 1.870628 -0.735786
v 0.735786 1.870628 0.735786
v -0.681688 3.054376 0.681688
v -0.681688 3.054376 -0.681688
v 0.681688 3.054376 -0.681688
v 0.681688 3.054376 0.681688
v -0.664032 3.536307 0.664032
v -0.664032 3.536306 -0.664032
v 0.664032 3.536306 -0.664032
v 0.664032 3.536306 0.664032
v -0.879668 3.204540 -0.879668
v 0.879668 3.204540 -0.879668
v 0.879668 3.204540 0.879668
v -0.879668 3.204540 0.879668
v -0.872309 3.405420 0.872309
v -0.872309 3.405420 -0.872309
v 0.872309 3.405420 -0.872309
v 0.872309 3.405420 0.872309
v -0.696278 4.000771 0.696278
v -0.696278 4.000771 -0.696278
v 0.696278 4.000771 -0.696278
v 0.696278 4.000771 0.696278
v -0.459676 3.768539 -0.459676
v 0.459676 3.768539 -0.459676
v 0.459676 3.768539 0.459676
v -0.459676 3.768539 0.459676
v -1.000000 0.000000 0.000000
v -0.700000 4.814939 -0.042023
v 1.000000 0.000000 0.000000
v 0.700000 4.814939 -0.042023
v 1.000000 0.422642 0.000000
v -1.000000 0.422642 0.000000
v 0.766574 1.426415 0.000000
v -0.766574 1.426415 0.000000
v 0.857754 1.638530 0.000000
v -0.857754 1.638530 0.000000
v 0.735786 1.870628 0.000000
v -0.735786 1.870628 0.000000
v 0.681688 3.054376 0.000000
v -0.681688 3.054376 0.000000
v 0.664032 3.536306 0.000000
v -0.664032 3.536306 0.000000
v -0.879668 3.204540 0.000000
v 0.879668 3.204540 0.000000
v -0.872309 3.405420 0.000000
v 0.872309 3.405420 0.000000
v 0.696278 4.000771 0.000000
v -0.696278 4.000771 0.000000
v -0.459676 3.768539 0.000000
v 0.459676 3.768539 0.000000
v -1.000000 0.000000 0.500000
v 0.700000 4.814939 0.117079
v 1.000000 0.422642 0.500000
v 0.766574 1.426415 0.383287
v 0.857754 1.638530 0.428877
v 0.735786 1.870628 0.367893
v 0.681688 3.054376 0.340844
v 0.664032 3.536306 0.332016
v 0.879668 3.204540 0.439834
v 0.872309 3.405420 0.436154
v 0.696278 4.000771 0.348139
v 0.459676 3.768539 0.229838
v -0.700000 4.814939 0.117079
v 1.000000 0.000000 0.500000
v -1.000000 0.422642 0.500000
v -0.766574 1.426415 0.383287
v -0.857754 1.638530 0.428877
v -0.735786 1.870628 0.367893
v -0.681688 3.054376 0.340844
v -0.664032 3.536306 0.332016
v -0.879668 3.204540 0.439834
v -0.872309 3.405420 0.436154
v -0.696278 4.000771 0.348139
v -0.459676 3.768539 0.229838
v -0.700000 5.418288 0.278745
v -0.700000 5.418288 -0.700000
v 0.700000 5.418288 -0.700000
v 0.700000 5.418288 0.437847
v 0.700000 5.418288 0.700000
v -0.700000 5.418288 0.700000
v 0.700000 5.418288 0.278745
v -0.700000 5.418288 0.437847
v 0.387193 0.000000 -1.000000
v 0.271035 4.814939 -0.700000
v 0.387193 0.000000 1.000000
v 0.271035 4.814939 0.700000
v 0.387193 0.422642 1.000000
v 0.387193 0.422642 -1.000000
v 0.296812 1.426415 0.766574
v 0.296812 1.426415 -0.766574
v 0.332116 1.638530 0.857754
v 0.332116 1.638530 -0.857754
v 0.284891 1.870628 0.735786
v 0.284891 1.870628 -0.735786
v 0.263945 3.054376 0.681688
v 0.263945 3.054376 -0.681688
v 0.257109 3.536306 0.664032
v 0.257109 3.536306 -0.664032
v 0.340601 3.204540 -0.879668
v 0.340601 3.204540 0.879668
v 0.337752 3.405420 -0.872309
v 0.337752 3.405420 0.872309
v 0.269594 4.000771 0.696278
v 0.269594 4.000771 -0.696278
v 0.177983 3.768539 -0.459676
v 0.177983 3.768539 0.459676
v 0.271035 4.814939 -0.042023
v 0.387193 0.000000 0.000000
v 0.271035 4.814939 0.117079
v 0.387193 0.000000 0.500000
v 0.271035 5.418288 -0.700000
v 0.271035 5.418288 0.700000
v 0.271035 5.418288 0.278745
v 0.271035 5.418288 0.437847
v -0.246867 0.000000 -1.000000
v -0.172807 4.814939 0.700000
v -0.246867 0.422642 1.000000
v -0.189242 1.426415 0.766574
v -0.211751 1.638530 0.857754
v -0.181642 1.870628 0.735786
v -0.168286 3.054376 0.681688
v -0.163928 3.536306 0.664032
v -0.217161 3.204540 0.879668
v -0.215344 3.405420 0.872309
v -0.171888 4.000771 0.696278
v -0.113479 3.768539 0.459676
v -0.246867 0.000000 0.000000
v -0.246867 0.000000 0.500000
v -0.172807 5.418288 0.700000
v -0.172807 4.814939 -0.700000
v -0.246867 0.000000 1.000000
v -0.246867 0.422642 -1.000000
v -0.189242 1.426415 -0.766574
v -0.211751 1.638530 -0.857754
v -0.181642 1.870628 -0.735786
v -0.168286 3.054376 -0.681688
v -0.163928 3.536306 -0.664032
v -0.217161 3.204540 -0.879668
v -0.215345 3.405420 -0.872309
v -0.171888 4.000771 -0.696278
v -0.113479 3.768539 -0.459676
v -0.172807 4.814939 -0.042023
v -0.172807 4.814939 0.117079
v -0.172807 5.418288 -0.700000
v -0.172807 5.418288 0.278745
v -0.172807 5.418288 0.437847
v -0.700000 4.814939 -0.371012
v 1.000000 0.000000 -0.500000
v -1.000000 0.422642 -0.500000
v -0.766574 1.426415 -0.383287
v -0.857754 1.638530 -0.428877
v -0.735786 1.870628 -0.367893
v -0.681688 3.054376 -0.340844
v -0.664032 3.536306 -0.332016
v -0.879668 3.204540 -0.439834
v -0.872309 3.405420 -0.436154
v -0.696278 4.000771 -0.348139
v -0.459676 3.768539 -0.229838
v -1.000000 0.000000 -0.500000
v 0.700000 4.814939 -0.371012
v 1.000000 0.422642 -0.500000
v 0.766574 1.426415 -0.383287
v 0.857754 1.638530 -0.428877
v 0.735786 1.870628 -0.367893
v 0.681688 3.054376 -0.340844
v 0.664032 3.536306 -0.332016
v 0.879668 3.204540 -0.439834
v 0.872309 3.405420 -0.436154
v 0.696278 4.000771 -0.348139
v 0.459676 3.768539 -0.229838
v -0.700000 5.418288 -0.210627
v 0.700000 5.418288 -0.210627
v 0.271035 5.418288 -0.210627
v 0.387193 0.000000 -0.500000
v -0.246867 0.000000 -0.500000
v -0.172807 5.418288 -0.210627
v -0.283335 5.711052 0.400611
v 0.381563 5.711052 0.400611
v 0.381563 5.711052 -0.332493
v -0.283335 5.711052 -0.332493
vn -1.0000 -0.0046 -0.0000
vn -0.0000 -0.0046 -1.0000
vn 1.0000 -0.0046 -0.0000
vn -0.0000 -0.0046 1.0000
vn -0.0000 -1.0000 -0.0000
vn -1.0000 -0.0000 -0.0000
vn -0.0000 -0.0000 1.0000
vn 1.0000 -0.0000 -0.0000
vn -0.0000 -0.0000 -1.0000
vn -0.0000 0.2265 0.9740
vn 0.9740 0.2265 -0.0000
vn -0.0000 0.2265 -0.9740
vn -0.9740 0.2265 -0.0000
vn -0.0000 -0.3949 0.9187
vn 0.9187 -0.3949 -0.0000
vn -0.0000 -0.3949 -0.9187
vn -0.9187 -0.3949 -0.0000
vn -0.0000 0.4652 0.8852
vn 0.8852 0.4652 -0.0000
vn -0.0000 0.4652 -0.8852
vn -0.8852 0.4652 -0.0000
vn -0.0000 0.0457 0.9990
vn 0.9990 0.0457 -0.0000
vn -0.0000 0.0457 -0.9990
vn -0.9990 0.0457 -0.0000
vn -0.0000 0.8467 0.5321
vn 0.5321 0.8467 -0.0000
vn -0.0000 0.8467 -0.5321
vn -0.5321 0.8467 -0.0000
vn -0.6043 -0.7967 -0.0000
vn -0.0000 -0.7967 -0.6043
vn 0.6043 -0.7967 -0.0000
vn -0.0000 -0.7967 0.6043
vn -0.9993 0.0366 -0.0000
vn -0.0000 0.0366 -0.9993
vn 0.9993 0.0366 -0.0000
vn -0.0000 0.0366 0.9993
vn -0.0000 -0.7137 0.7005
vn 0.7005 -0.7137 -0.0000
vn -0.0000 -0.7137 -0.7005
vn -0.7005 -0.7137 -0.0000
vn -0.7507 0.6606 -0.0000
vn -0.0000 0.6606 -0.7507
vn 0.7507 0.6606 -0.0000
vn -0.0000 0.6606 0.7507
vn -0.0000 -0.4694 0.8830
vn -0.0000 1.0000 -0.0000
vn -0.0000 0.4694 -0.8830
vn -0.0000 -0.3843 0.9232
vn -0.9355 -0.3532 -0.0000
vn -0.0000 -0.3843 -0.9232
vn 0.9355 -0.3532 -0.0000
vt 0.375000 1.000000
vt 0.375000 0.000000
vt 0.125000 0.750000
vt 0.625000 0.000000
vt 0.625000 1.000000
vt 0.375000 0.250000
vt 0.125000 0.500000
vt 0.625000 0.250000
vt 0.375000 0.750000
vt 0.625000 0.750000
vt 0.375000 0.500000
vt 0.625000 0.500000
vt 0.393868 1.000000
vt 0.393868 0.000000
vt 0.393868 0.250000
vt 0.393868 0.500000
vt 0.393868 0.750000
vt 0.438679 1.000000
vt 0.438679 0.000000
vt 0.438679 0.250000
vt 0.438679 0.500000
vt 0.438679 0.750000
vt 0.448149 1.000000
vt 0.448149 0.000000
vt 0.448149 0.250000
vt 0.448149 0.500000
vt 0.448149 0.750000
vt 0.458510 1.000000
vt 0.458510 0.000000
vt 0.458510 0.250000
vt 0.458510 0.500000
vt 0.458510 0.750000
vt 0.524082 1.000000
vt 0.524082 0.000000
vt 0.524082 0.250000
vt 0.524082 0.500000
vt 0.524082 0.750000
vt 0.545597 1.000000
vt 0.545597 0.000000
vt 0.545597 0.250000
vt 0.545597 0.500000
vt 0.545597 0.750000
vt 0.531827 0.250000
vt 0.531827 0.500000
vt 0.531827 0.750000
vt 0.531827 1.000000
vt 0.531827 0.000000
vt 0.538712 1.000000
vt 0.538712 0.000000
vt 0.538712 0.250000
vt 0.538712 0.500000
vt 0.538712 0.750000
vt 0.566332 1.000000
vt 0.566332 0.000000
vt 0.566332 0.250000
vt 0.566332 0.500000
vt 0.566332 0.750000
vt 0.555284 0.250000
vt 0.555284 0.500000
vt 0.555284 0.750000
vt 0.555284 0.959605
vt 0.555284 0.040395
vt 0.125000 0.625000
vt 0.375000 0.125000
vt 0.875000 0.625000
vt 0.625000 0.125000
vt 0.375000 0.625000
vt 0.625000 0.625000
vt 0.393868 0.625000
vt 0.393868 0.125000
vt 0.438679 0.625000
vt 0.438679 0.125000
vt 0.448149 0.625000
vt 0.448149 0.125000
vt 0.458510 0.625000
vt 0.458510 0.125000
vt 0.524082 0.625000
vt 0.524082 0.125000
vt 0.545597 0.625000
vt 0.545597 0.125000
vt 0.531827 0.125000
vt 0.531827 0.625000
vt 0.538712 0.125000
vt 0.538712 0.625000
vt 0.566332 0.625000
vt 0.566332 0.125000
vt 0.555284 0.145198
vt 0.555284 0.625000
vt 0.375000 0.062500
vt 0.125000 0.687500
vt 0.625000 0.687500
vt 0.393868 0.687500
vt 0.438679 0.687500
vt 0.448149 0.687500
vt 0.458510 0.687500
vt 0.524082 0.687500
vt 0.545597 0.687500
vt 0.531827 0.687500
vt 0.538712 0.687500
vt 0.566332 0.687500
vt 0.555284 0.687500
vt 0.875000 0.687500
vt 0.625000 0.062500
vt 0.375000 0.687500
vt 0.393868 0.062500
vt 0.438679 0.062500
vt 0.448149 0.062500
vt 0.458510 0.062500
vt 0.524082 0.062500
vt 0.545597 0.062500
vt 0.531827 0.062500
vt 0.538712 0.062500
vt 0.566332 0.062500
vt 0.555284 0.092796
vt 0.625000 0.125000
vt 0.875000 0.625000
vt 0.875000 0.500000
vt 0.625000 0.250000
vt 0.625000 0.500000
vt 0.625000 0.687500
vt 0.625000 0.750000
vt 0.875000 0.750000
vt 0.625000 0.000000
vt 0.625000 1.000000
vt 0.625000 0.625000
vt 0.875000 0.687500
vt 0.625000 0.062500
vt 0.375000 0.423399
vt 0.298399 0.500000
vt 0.625000 0.423399
vt 0.298399 0.750000
vt 0.375000 0.826601
vt 0.625000 0.826601
vt 0.393868 0.826601
vt 0.393868 0.423399
vt 0.438679 0.826601
vt 0.438679 0.423399
vt 0.448149 0.826601
vt 0.448149 0.423399
vt 0.458510 0.826601
vt 0.458510 0.423399
vt 0.524082 0.826601
vt 0.524082 0.423399
vt 0.545597 0.826601
vt 0.545597 0.423399
vt 0.531827 0.423399
vt 0.531827 0.826601
vt 0.538712 0.423399
vt 0.538712 0.826601
vt 0.566332 0.826601
vt 0.566332 0.423399
vt 0.555284 0.423399
vt 0.555284 0.814224
vt 0.701601 0.625000
vt 0.298399 0.625000
vt 0.701601 0.687500
vt 0.298399 0.687500
vt 0.625000 0.423399
vt 0.701601 0.500000
vt 0.625000 0.826601
vt 0.701601 0.750000
vt 0.701601 0.625000
vt 0.701601 0.687500
vt 0.375000 0.344142
vt 0.219142 0.500000
vt 0.625000 0.905859
vt 0.393868 0.905858
vt 0.438679 0.905858
vt 0.448149 0.905858
vt 0.458510 0.905858
vt 0.524082 0.905858
vt 0.545597 0.905858
vt 0.531827 0.905858
vt 0.538712 0.905858
vt 0.566332 0.905858
vt 0.555284 0.880675
vt 0.219142 0.625000
vt 0.219142 0.687500
vt 0.625000 0.905858
vt 0.780858 0.750000
vt 0.625000 0.344142
vt 0.219142 0.750000
vt 0.375000 0.905858
vt 0.393868 0.344142
vt 0.438679 0.344142
vt 0.448149 0.344142
vt 0.458510 0.344142
vt 0.524082 0.344142
vt 0.545597 0.344142
vt 0.531827 0.344142
vt 0.538712 0.344142
vt 0.566332 0.344142
vt 0.555284 0.344142
vt 0.780858 0.625000
vt 0.780859 0.687500
vt 0.625000 0.344142
vt 0.780858 0.500000
vt 0.780858 0.625000
vt 0.780858 0.687500
vt 0.625000 0.187500
vt 0.375000 0.562500
vt 0.393868 0.187500
vt 0.438679 0.187500
vt 0.448149 0.187500
vt 0.458510 0.187500
vt 0.524082 0.187500
vt 0.545597 0.187500
vt 0.531827 0.187500
vt 0.538712 0.187500
vt 0.566332 0.187500
vt 0.555284 0.197599
vt 0.125000 0.562500
vt 0.375000 0.187500
vt 0.625000 0.562500
vt 0.393868 0.562500
vt 0.438679 0.562500
vt 0.448149 0.562500
vt 0.458510 0.562500
vt 0.524082 0.562500
vt 0.545597 0.562500
vt 0.531827 0.562500
vt 0.538712 0.562500
vt 0.566332 0.562500
vt 0.555284 0.562500
vt 0.875000 0.562500
vt 0.625000 0.187500
vt 0.625000 0.562500
vt 0.701601 0.562500
vt 0.298399 0.562500
vt 0.219142 0.562500
vt 0.780858 0.562500
vt 0.780858 0.625000
vt 0.701601 0.625000
vt 0.701601 0.562500
vt 0.780858 0.562500
s 0
f 179/210/1 169/200/1 4/8/1 42/55/1
f 126/151/2 106/130/2 8/12/2 43/56/2
f 83/100/3 74/91/3 6/10/3 44/57/3
f 147/175/4 138/166/4 2/5/4 41/53/4
f 132/157/5 86/104/5 5/9/5 107/131/5
f 169/200/6 50/66/6 97/115/6 193/226/6
f 153/183/7 139/167/7 9/13/7 1/1/7
f 86/104/8 75/92/8 12/17/8 5/9/8
f 105/128/9 110/135/9 11/16/9 7/11/9
f 181/213/6 171/202/6 10/15/6 3/6/6
f 139/167/10 140/168/10 13/18/10 9/13/10
f 75/92/11 76/93/11 16/22/11 12/17/11
f 110/135/12 112/137/12 15/21/12 11/16/12
f 171/202/13 172/203/13 14/20/13 10/15/13
f 140/168/14 141/169/14 17/23/14 13/18/14
f 76/93/15 77/94/15 20/27/15 16/22/15
f 112/137/16 114/139/16 19/26/16 15/21/16
f 172/203/17 173/204/17 18/25/17 14/20/17
f 141/169/18 142/170/18 21/28/18 17/23/18
f 77/94/19 78/95/19 24/32/19 20/27/19
f 114/139/20 116/141/20 23/31/20 19/26/20
f 173/204/21 174/205/21 22/30/21 18/25/21
f 142/170/22 143/171/22 25/33/22 21/28/22
f 78/95/23 79/96/23 28/37/23 24/32/23
f 116/141/24 118/143/24 27/36/24 23/31/24
f 174/205/25 175/206/25 26/35/25 22/30/25
f 146/174/26 144/172/26 29/38/26 37/48/26
f 82/99/27 80/97/27 32/42/27 40/52/27
f 123/148/28 120/145/28 31/41/28 39/51/28
f 178/209/29 176/207/29 30/40/29 38/50/29
f 175/206/30 177/208/30 33/43/30 26/35/30
f 118/143/31 121/146/31 34/44/31 27/36/31
f 79/96/32 81/98/32 35/45/32 28/37/32
f 143/171/33 145/173/33 36/46/33 25/33/33
f 177/208/34 178/209/34 38/50/34 33/43/34
f 121/146/35 123/148/35 39/51/35 34/44/35
f 81/98/36 82/99/36 40/52/36 35/45/36
f 145/173/37 146/174/37 37/48/37 36/46/37
f 148/176/38 147/175/38 41/53/38 48/61/38
f 84/101/39 83/100/39 44/57/39 47/60/39
f 127/152/40 126/151/40 43/56/40 46/59/40
f 180/211/41 179/210/41 42/55/41 45/58/41
f 176/207/42 180/211/42 45/58/42 30/40/42
f 120/145/43 127/152/43 46/59/43 31/41/43
f 80/97/44 84/101/44 47/60/44 32/42/44
f 144/172/45 148/176/45 48/61/45 29/38/45
f 188/220/44 192/224/44 72/88/44 63/79/44
f 92/110/42 96/114/42 71/87/42 64/80/42
f 96/114/41 95/113/41 70/86/41 71/87/41
f 192/224/39 191/223/39 69/85/39 72/88/39
f 189/221/36 190/222/36 68/84/36 66/82/36
f 93/111/34 94/112/34 67/83/34 65/81/34
f 187/219/32 189/221/32 66/82/32 61/77/32
f 91/109/30 93/111/30 65/81/30 62/78/30
f 94/112/29 92/110/29 64/80/29 67/83/29
f 190/222/27 188/220/27 63/79/27 68/84/27
f 90/108/25 91/109/25 62/78/25 60/76/25
f 186/218/23 187/219/23 61/77/23 59/75/23
f 89/107/21 90/108/21 60/76/21 58/74/21
f 185/217/19 186/218/19 59/75/19 57/73/19
f 88/106/17 89/107/17 58/74/17 56/72/17
f 184/216/15 185/217/15 57/73/15 55/71/15
f 87/105/13 88/106/13 56/72/13 54/70/13
f 183/215/11 184/216/11 55/71/11 53/69/11
f 73/89/6 87/105/6 54/70/6 49/64/6
f 170/201/8 183/215/8 53/69/8 51/67/8
f 129/154/46 52/68/46 103/125/46 135/162/46
f 196/229/5 170/201/5 51/67/5 130/155/5
f 191/223/3 182/214/3 52/68/3 69/85/3
f 95/113/1 85/103/1 50/66/1 70/86/1
f 41/54/1 2/4/1 85/103/1 95/113/1
f 1/2/6 9/14/6 87/105/6 73/89/6
f 9/14/13 13/19/13 88/106/13 87/105/13
f 13/19/17 17/24/17 89/107/17 88/106/17
f 17/24/21 21/29/21 90/108/21 89/107/21
f 21/29/25 25/34/25 91/109/25 90/108/25
f 37/49/29 29/39/29 92/110/29 94/112/29
f 25/34/30 36/47/30 93/111/30 91/109/30
f 36/47/34 37/49/34 94/112/34 93/111/34
f 48/62/41 41/54/41 95/113/41 96/114/41
f 29/39/42 48/62/42 96/114/42 92/110/42
f 63/79/44 72/88/44 84/101/44 80/97/44
f 72/88/39 69/85/39 83/100/39 84/101/39
f 66/82/36 68/84/36 82/99/36 81/98/36
f 61/77/32 66/82/32 81/98/32 79/96/32
f 68/84/27 63/79/27 80/97/27 82/99/27
f 59/75/23 61/77/23 79/96/23 78/95/23
f 57/73/19 59/75/19 78/95/19 77/94/19
f 55/71/15 57/73/15 77/94/15 76/93/15
f 53/69/11 55/71/11 76/93/11 75/92/11
f 51/67/8 53/69/8 75/92/8 86/104/8
f 164/194/47 50/65/47 85/102/47 165/195/47
f 130/155/5 51/67/5 86/104/5 132/157/5
f 69/85/3 52/68/3 74/91/3 83/100/3
f 168/199/47 104/126/47 102/122/47 151/180/47
f 198/231/47 193/225/47 97/116/47 167/198/47
f 108/133/7 6/10/7 101/121/7 134/160/7
f 165/195/48 85/102/48 104/126/48 168/199/48
f 85/103/6 2/4/6 102/123/6 104/127/6
f 182/214/8 8/12/8 99/119/8 194/227/8
f 152/181/9 4/8/9 98/118/9 166/196/9
f 6/10/8 74/91/8 100/120/8 101/121/8
f 8/12/9 106/130/9 133/158/9 99/119/9
f 74/91/48 131/156/48 136/163/48 100/120/48
f 138/166/7 108/133/7 134/160/7 151/179/7
f 194/227/47 195/228/47 135/162/47 103/125/47
f 100/120/47 136/163/47 134/161/47 101/121/47
f 149/177/5 130/155/5 132/157/5 150/178/5
f 52/68/47 129/154/47 131/156/47 74/91/47
f 197/230/5 196/229/5 130/155/5 149/177/5
f 164/194/46 129/154/46 135/162/46 167/198/46
f 32/42/45 47/60/45 128/153/45 119/144/45
f 159/189/43 163/193/43 127/152/43 120/145/43
f 163/193/40 162/192/40 126/151/40 127/152/40
f 47/60/38 44/57/38 125/150/38 128/153/38
f 35/45/37 40/52/37 124/149/37 122/147/37
f 160/190/35 161/191/35 123/148/35 121/146/35
f 28/37/33 35/45/33 122/147/33 117/142/33
f 158/188/31 160/190/31 121/146/31 118/143/31
f 161/191/28 159/189/28 120/145/28 123/148/28
f 40/52/26 32/42/26 119/144/26 124/149/26
f 157/187/24 158/188/24 118/143/24 116/141/24
f 24/32/22 28/37/22 117/142/22 115/140/22
f 156/186/20 157/187/20 116/141/20 114/139/20
f 20/27/18 24/32/18 115/140/18 113/138/18
f 155/185/16 156/186/16 114/139/16 112/137/16
f 16/22/14 20/27/14 113/138/14 111/136/14
f 154/184/12 155/185/12 112/137/12 110/135/12
f 12/17/10 16/22/10 111/136/10 109/134/10
f 137/164/9 154/184/9 110/135/9 105/128/9
f 5/9/7 12/17/7 109/134/7 107/132/7
f 150/178/5 132/157/5 107/131/5 153/182/5
f 44/57/4 6/10/4 108/133/4 125/150/4
f 162/192/2 152/181/2 106/130/2 126/151/2
f 42/55/2 4/8/2 152/181/2 162/192/2
f 73/90/5 150/178/5 153/182/5 1/3/5
f 3/6/9 10/15/9 154/184/9 137/164/9
f 10/15/12 14/20/12 155/185/12 154/184/12
f 14/20/16 18/25/16 156/186/16 155/185/16
f 18/25/20 22/30/20 157/187/20 156/186/20
f 22/30/24 26/35/24 158/188/24 157/187/24
f 38/50/28 30/40/28 159/189/28 161/191/28
f 26/35/31 33/43/31 160/190/31 158/188/31
f 33/43/35 38/50/35 161/191/35 160/190/35
f 45/58/40 42/55/40 162/192/40 163/193/40
f 30/40/43 45/58/43 163/193/43 159/189/43
f 50/65/46 164/194/46 167/198/46 97/116/46
f 181/212/5 197/230/5 149/177/5 49/63/5
f 49/63/5 149/177/5 150/178/5 73/90/5
f 2/5/7 138/166/7 151/179/7 102/124/7
f 106/130/9 152/181/9 166/196/9 133/158/9
f 131/156/48 165/195/48 168/199/48 136/163/48
f 167/198/49 135/162/49 200/233/49 199/232/49
f 136/163/47 168/199/47 151/180/47 134/161/47
f 129/154/47 164/194/47 165/195/47 131/156/47
f 119/144/45 128/153/45 148/176/45 144/172/45
f 128/153/38 125/150/38 147/175/38 148/176/38
f 122/147/37 124/149/37 146/174/37 145/173/37
f 117/142/33 122/147/33 145/173/33 143/171/33
f 124/149/26 119/144/26 144/172/26 146/174/26
f 115/140/22 117/142/22 143/171/22 142/170/22
f 113/138/18 115/140/18 142/170/18 141/169/18
f 111/136/14 113/138/14 141/169/14 140/168/14
f 109/134/10 111/136/10 140/168/10 139/167/10
f 107/132/7 109/134/7 139/167/7 153/183/7
f 125/150/4 108/133/4 138/166/4 147/175/4
f 133/159/47 166/197/47 198/231/47 195/228/47
f 3/7/5 137/165/5 197/230/5 181/212/5
f 137/165/5 105/129/5 196/229/5 197/230/5
f 99/119/47 133/159/47 195/228/47 194/227/47
f 52/68/8 182/214/8 194/227/8 103/125/8
f 166/197/47 98/117/47 193/225/47 198/231/47
f 43/56/3 8/12/3 182/214/3 191/223/3
f 105/129/5 7/11/5 170/201/5 196/229/5
f 7/11/8 11/16/8 183/215/8 170/201/8
f 11/16/11 15/21/11 184/216/11 183/215/11
f 15/21/15 19/26/15 185/217/15 184/216/15
f 19/26/19 23/31/19 186/218/19 185/217/19
f 23/31/23 27/36/23 187/219/23 186/218/23
f 39/51/27 31/41/27 188/220/27 190/222/27
f 27/36/32 34/44/32 189/221/32 187/219/32
f 34/44/36 39/51/36 190/222/36 189/221/36
f 46/59/39 43/56/39 191/223/39 192/224/39
f 31/41/44 46/59/44 192/224/44 188/220/44
f 64/80/42 71/87/42 180/211/42 176/207/42
f 71/87/41 70/86/41 179/210/41 180/211/41
f 65/81/34 67/83/34 178/209/34 177/208/34
f 62/78/30 65/81/30 177/208/30 175/206/30
f 67/83/29 64/80/29 176/207/29 178/209/29
f 60/76/25 62/78/25 175/206/25 174/205/25
f 58/74/21 60/76/21 174/205/21 173/204/21
f 56/72/17 58/74/17 173/204/17 172/203/17
f 54/70/13 56/72/13 172/203/13 171/202/13
f 49/64/6 54/70/6 171/202/6 181/213/6
f 4/8/6 169/200/6 193/226/6 98/118/6
f 70/86/1 50/66/1 169/200/1 179/210/1
f 201/234/47 202/235/47 199/232/47 200/233/47
f 198/231/50 167/198/50 199/232/50 202/235/50
f 195/228/51 198/231/51 202/235/51 201/234/51
f 135/162/52 195/228/52 201/234/52 200/233/52
