# Blender 3.3.1
# www.blender.org
o Pawn
v -1.000000 0.000000 1.000000
v -0.498152 3.458072 0.498152
v -1.000000 0.000000 -1.000000
v -0.498152 3.458072 -0.498152
v 1.000000 0.000000 1.000000
v 0.498152 3.458072 0.498152
v 1.000000 0.000000 -1.000000
v 0.498152 3.458072 -0.498152
v -0.498152 2.315305 0.498152
v -0.498152 2.315305 -0.498152
v 0.498152 2.315305 -0.498152
v 0.498152 2.315305 0.498152
v -0.766950 2.144677 -0.766950
v 0.766950 2.144677 -0.766950
v 0.766950 2.144677 0.766950
v -0.766950 2.144677 0.766950
v -0.760115 2.021520 -0.760115
v 0.760115 2.021520 -0.760115
v 0.760115 2.021520 0.760115
v -0.760115 2.021520 0.760115
v -0.487715 1.845076 -0.487715
v 0.487715 1.845076 -0.487715
v 0.487715 1.845076 0.487715
v -0.487715 1.845076 0.487715
v -0.860685 0.661203 -0.860685
v 0.860685 0.661203 -0.860685
v 0.860685 0.661203 0.860685
v -0.860685 0.661203 0.860685
v -0.668099 1.253139 0.668099
v -0.668099 1.253139 -0.668099
v 0.668099 1.253139 -0.668099
v 0.668099 1.253139 0.668099
v -0.296923 2.423405 0.296923
v -0.296923 2.423405 -0.296923
v 0.296923 2.423405 -0.296923
v 0.296923 2.423405 0.296923
v -0.498152 2.600997 0.498152
v -0.498152 2.600997 -0.498152
v 0.498152 2.600997 -0.498152
v 0.498152 2.600997 0.498152
vn -1.0000 -0.0000 -0.0000
vn -0.0000 -0.0000 -1.0000
vn 1.0000 -0.0000 -0.0000
vn -0.0000 -0.0000 1.0000
vn -0.0000 -1.0000 -0.0000
vn -0.0000 1.0000 -0.0000
vn -0.0000 0.8443 0.5359
vn 0.5359 0.8443 -0.0000
vn -0.0000 0.8443 -0.5359
vn -0.5359 0.8443 -0.0000
vn -0.9985 -0.0554 -0.0000
vn -0.0000 -0.0554 -0.9985
vn 0.9985 -0.0554 -0.0000
vn -0.0000 -0.0554 0.9985
vn -0.0000 -0.8393 0.5437
vn 0.5437 -0.8393 -0.0000
vn -0.0000 -0.8393 -0.5437
vn -0.5437 -0.8393 -0.0000
vn -0.9566 0.2915 -0.0000
vn -0.0000 0.2915 -0.9566
vn 0.9566 0.2915 -0.0000
vn -0.0000 0.2915 0.9566
vn -0.0000 0.2062 0.9785
vn 0.9785 0.2062 -0.0000
vn -0.0000 0.2062 -0.9785
vn -0.9785 0.2062 -0.0000
vn -0.0000 0.3094 0.9509
vn 0.9509 0.3094 -0.0000
vn -0.0000 0.3094 -0.9509
vn -0.9509 0.3094 -0.0000
vn -0.0000 0.8809 0.4732
vn 0.4732 0.8809 -0.0000
vn -0.0000 0.8809 -0.4732
vn -0.4732 0.8809 -0.0000
vn -0.0000 -0.7498 0.6617
vn 0.6617 -0.7498 -0.0000
vn -0.0000 -0.7498 -0.6617
vn -0.6617 -0.7498 -0.0000
vt 0.125000 0.750000
vt 0.375000 1.000000
vt 0.375000 0.000000
vt 0.625000 0.000000
vt 0.625000 1.000000
vt 0.875000 0.750000
vt 0.125000 0.500000
vt 0.375000 0.250000
vt 0.625000 0.250000
vt 0.875000 0.500000
vt 0.375000 0.750000
vt 0.625000 0.750000
vt 0.375000 0.500000
vt 0.625000 0.500000
vt 0.549513 1.000000
vt 0.549513 0.000000
vt 0.549513 0.250000
vt 0.549513 0.500000
vt 0.549513 0.750000
vt 0.538079 0.250000
vt 0.538079 0.500000
vt 0.538079 0.750000
vt 0.538079 0.000000
vt 0.538079 1.000000
vt 0.526375 0.250000
vt 0.526375 0.500000
vt 0.526375 0.750000
vt 0.526375 1.000000
vt 0.526375 0.000000
vt 0.513637 0.250000
vt 0.513637 0.500000
vt 0.513637 0.750000
vt 0.513637 0.000000
vt 0.513637 1.000000
vt 0.424682 0.250000
vt 0.424682 0.500000
vt 0.424682 0.750000
vt 0.424682 1.000000
vt 0.424682 0.000000
vt 0.469291 0.998945
vt 0.469291 0.001055
vt 0.469291 0.250000
vt 0.469291 0.500000
vt 0.469291 0.750000
vt 0.556654 1.000000
vt 0.556654 0.000000
vt 0.556654 0.250000
vt 0.556654 0.500000
vt 0.556654 0.750000
vt 0.568385 1.000000
vt 0.568385 0.000000
vt 0.568385 0.250000
vt 0.568385 0.500000
vt 0.568385 0.750000
s 0
f 37/51/1 2/4/1 4/9/1 38/52/1
f 38/52/2 4/9/2 8/14/2 39/53/2
f 39/53/3 8/14/3 6/12/3 40/54/3
f 40/54/4 6/12/4 2/5/4 37/50/4
f 3/7/5 7/13/5 5/11/5 1/1/5
f 8/14/6 4/10/6 2/6/6 6/12/6
f 15/22/7 12/19/7 9/15/7 16/24/7
f 14/21/8 11/18/8 12/19/8 15/22/8
f 13/20/9 10/17/9 11/18/9 14/21/9
f 16/23/10 9/16/10 10/17/10 13/20/10
f 20/29/11 16/23/11 13/20/11 17/25/11
f 17/25/12 13/20/12 14/21/12 18/26/12
f 18/26/13 14/21/13 15/22/13 19/27/13
f 19/27/14 15/22/14 16/24/14 20/28/14
f 23/32/15 19/27/15 20/28/15 24/34/15
f 22/31/16 18/26/16 19/27/16 23/32/16
f 21/30/17 17/25/17 18/26/17 22/31/17
f 24/33/18 20/29/18 17/25/18 21/30/18
f 29/41/19 24/33/19 21/30/19 30/42/19
f 30/42/20 21/30/20 22/31/20 31/43/20
f 31/43/21 22/31/21 23/32/21 32/44/21
f 32/44/22 23/32/22 24/34/22 29/40/22
f 5/11/23 27/37/23 28/38/23 1/2/23
f 7/13/24 26/36/24 27/37/24 5/11/24
f 3/8/25 25/35/25 26/36/25 7/13/25
f 1/3/26 28/39/26 25/35/26 3/8/26
f 27/37/27 32/44/27 29/40/27 28/38/27
f 26/36/28 31/43/28 32/44/28 27/37/28
f 25/35/29 30/42/29 31/43/29 26/36/29
f 28/39/30 29/41/30 30/42/30 25/35/30
f 12/19/31 36/49/31 33/45/31 9/15/31
f 11/18/32 35/48/32 36/49/32 12/19/32
f 10/17/33 34/47/33 35/48/33 11/18/33
f 9/16/34 33/46/34 34/47/34 10/17/34
f 36/49/35 40/54/35 37/50/35 33/45/35
f 35/48/36 39/53/36 40/54/36 36/49/36
f 34/47/37 38/52/37 39/53/37 35/48/37
f 33/46/38 37/51/38 38/52/38 34/47/38
